<svg width="45" height="61" viewBox="0 0 45 61" fill="none" xmlns="http://www.w3.org/2000/svg">
<path fill-rule="evenodd" clip-rule="evenodd" d="M22.9967 0C23.9193 0 24.5453 0.174979 24.9678 1L33.838 18C34.3499 18.9995 34.6674 20.2463 33.838 21L32.8524 22L39.7515 33C40.3411 33.9136 40.4473 35.1653 39.7515 36L38.7659 37L44.6793 49C45.0892 49.7681 45.1243 50.2519 44.6793 51C44.2344 51.7481 43.5748 52 42.7082 52H28.9101V58C28.9101 59.3688 28.2998 61 26.939 61H19.0544C17.6936 61 17.0832 59.3688 17.0832 58V52H2.29961C1.42169 52 0.769454 51.7636 0.328456 51C-0.112541 50.2364 -0.106419 48.7671 0.328456 48L6.24191 37L5.25633 36C4.71256 35.1847 4.73429 33.8296 5.25633 33L13.1409 22L12.1554 21C11.4662 20.2345 11.6852 18.9181 12.1554 18L21.0255 1C21.448 0.174979 22.0741 0 22.9967 0ZM17.0832 24L11.1698 35H19.0544C20.4152 35 22.0111 35.6312 22.0111 37C22.0111 38.3688 20.4152 40 19.0544 40H11.1698L6.24191 47H38.7659L33.838 38C33.3615 37.107 33.1906 36.7766 33.838 36L34.8236 34L27.9246 23C27.2655 21.9789 27.0265 20.8161 27.9246 20L28.9101 19L22.9967 7L17.0832 19H21.0255C22.3863 19 23.9823 20.6312 23.9823 22C23.9823 23.3688 22.3863 24 21.0255 24H17.0832ZM22.0111 52V56H23.9823V52H22.0111Z" fill="#FEFCE9"/>
</svg>
