<svg width="45" height="61" viewBox="0 0 45 61" fill="none" xmlns="http://www.w3.org/2000/svg">
<path fill-rule="evenodd" clip-rule="evenodd" d="M22.0033 0C21.0807 0 20.4547 0.174979 20.0322 1L11.162 18C10.6501 18.9995 10.3326 20.2463 11.162 21L12.1476 22L5.24853 33C4.65887 33.9136 4.55272 35.1653 5.24853 36L6.23411 37L0.320656 49C-0.0891571 49.7681 -0.124256 50.2519 0.320656 51C0.765568 51.7481 1.42517 52 2.29181 52H16.0899V58C16.0899 59.3688 16.7002 61 18.061 61H25.9456C27.3064 61 27.9168 59.3688 27.9168 58V52H42.7004C43.5783 52 44.2305 51.7636 44.6715 51C45.1125 50.2364 45.1064 48.7671 44.6715 48L38.7581 37L39.7437 36C40.2874 35.1847 40.2657 33.8296 39.7437 33L31.8591 22L32.8446 21C33.5338 20.2345 33.3148 18.9181 32.8446 18L23.9745 1C23.552 0.174979 22.9259 0 22.0033 0ZM27.9168 24L33.8302 35H25.9456C24.5848 35 22.9889 35.6312 22.9889 37C22.9889 38.3688 24.5848 40 25.9456 40H33.8302L38.7581 47H6.23411L11.162 38C11.6385 37.107 11.8094 36.7766 11.162 36L10.1764 34L17.0754 23C17.7345 21.9789 17.9735 20.8161 17.0754 20L16.0899 19L22.0033 7L27.9168 19H23.9745C22.6137 19 21.0177 20.6312 21.0177 22C21.0177 23.3688 22.6137 24 23.9745 24H27.9168ZM22.9889 52V56H21.0177V52H22.9889Z" fill="#FEFCE9"/>
</svg>
