<svg width="372" height="33" viewBox="0 0 372 33" fill="none" xmlns="http://www.w3.org/2000/svg">
<path d="M0.7475 17.8C0.7475 20.8933 1.84617 23.528 4.0435 25.704C6.2195 27.9013 8.85417 29 11.9475 29C15.5742 29 18.5075 27.5707 20.7475 24.712C21.1315 24.2213 21.2915 23.6773 21.2275 23.08C21.1422 22.4613 20.8542 21.96 20.3635 21.576C19.8728 21.192 19.3288 21.0427 18.7315 21.128C18.1128 21.192 17.6115 21.4693 17.2275 21.96C15.8835 23.6667 14.1235 24.52 11.9475 24.52C10.0915 24.52 8.51283 23.8587 7.2115 22.536C5.88883 21.2347 5.2275 19.656 5.2275 17.8C5.2275 15.944 5.88883 14.3653 7.2115 13.064C8.51283 11.7413 10.0915 11.08 11.9475 11.08C14.1235 11.08 15.8835 11.9333 17.2275 13.64C17.6115 14.1307 18.1128 14.408 18.7315 14.472C19.3288 14.5573 19.8728 14.408 20.3635 14.024C20.8542 13.64 21.1422 13.1387 21.2275 12.52C21.2915 11.9227 21.1315 11.3787 20.7475 10.888C18.5075 8.02933 15.5742 6.6 11.9475 6.6C8.85417 6.6 6.2195 7.69867 4.0435 9.896C1.84617 12.072 0.7475 14.7067 0.7475 17.8ZM35.735 11.08C37.591 11.08 39.1697 11.7413 40.471 13.064C41.7937 14.3653 42.455 15.944 42.455 17.8C42.455 19.656 41.7937 21.2347 40.471 22.536C39.1697 23.8587 37.591 24.52 35.735 24.52C33.879 24.52 32.3003 23.8587 30.999 22.536C29.6763 21.2347 29.015 19.656 29.015 17.8C29.015 15.944 29.6763 14.3653 30.999 13.064C32.3003 11.7413 33.879 11.08 35.735 11.08ZM35.735 29C38.8283 29 41.463 27.9013 43.639 25.704C45.8363 23.528 46.935 20.8933 46.935 17.8C46.935 14.7067 45.8363 12.072 43.639 9.896C41.463 7.69867 38.8283 6.6 35.735 6.6C32.6417 6.6 30.007 7.69867 27.831 9.896C25.6337 12.072 24.535 14.7067 24.535 17.8C24.535 20.8933 25.6337 23.528 27.831 25.704C30.007 27.9013 32.6417 29 35.735 29ZM50.4475 17.8C50.4475 20.8933 51.5462 23.528 53.7435 25.704C55.9195 27.9013 58.5542 29 61.6475 29C65.2742 29 68.2075 27.5707 70.4475 24.712C70.8315 24.2213 70.9915 23.6773 70.9275 23.08C70.8422 22.4613 70.5542 21.96 70.0635 21.576C69.5728 21.192 69.0288 21.0427 68.4315 21.128C67.8128 21.192 67.3115 21.4693 66.9275 21.96C65.5835 23.6667 63.8235 24.52 61.6475 24.52C59.7915 24.52 58.2128 23.8587 56.9115 22.536C55.5888 21.2347 54.9275 19.656 54.9275 17.8C54.9275 15.944 55.5888 14.3653 56.9115 13.064C58.2128 11.7413 59.7915 11.08 61.6475 11.08C63.8235 11.08 65.5835 11.9333 66.9275 13.64C67.3115 14.1307 67.8128 14.408 68.4315 14.472C69.0288 14.5573 69.5728 14.408 70.0635 14.024C70.5542 13.64 70.8422 13.1387 70.9275 12.52C70.9915 11.9227 70.8315 11.3787 70.4475 10.888C68.2075 8.02933 65.2742 6.6 61.6475 6.6C58.5542 6.6 55.9195 7.69867 53.7435 9.896C51.5462 12.072 50.4475 14.7067 50.4475 17.8ZM77.755 6.6C77.1363 6.6 76.603 6.81333 76.155 7.24C75.7283 7.688 75.515 8.22133 75.515 8.84V26.76C75.515 27.3787 75.7283 27.912 76.155 28.36C76.603 28.7867 77.1363 29 77.755 29C78.3737 29 78.907 28.7867 79.355 28.36C79.7817 27.912 79.995 27.3787 79.995 26.76V20.04H90.875V26.76C90.875 27.3787 91.0883 27.912 91.515 28.36C91.963 28.7867 92.4963 29 93.115 29C93.7337 29 94.267 28.7867 94.715 28.36C95.1417 27.912 95.355 27.3787 95.355 26.76V8.84C95.355 8.22133 95.1417 7.688 94.715 7.24C94.267 6.81333 93.7337 6.6 93.115 6.6C92.4963 6.6 91.963 6.81333 91.515 7.24C91.0883 7.688 90.875 8.22133 90.875 8.84V15.56H79.995V8.84C79.995 8.22133 79.7817 7.688 79.355 7.24C78.907 6.81333 78.3737 6.6 77.755 6.6ZM111.348 11.08C113.204 11.08 114.782 11.7413 116.083 13.064C117.406 14.3653 118.068 15.944 118.068 17.8C118.068 19.656 117.406 21.2347 116.083 22.536C114.782 23.8587 113.204 24.52 111.348 24.52C109.492 24.52 107.913 23.8587 106.612 22.536C105.289 21.2347 104.628 19.656 104.628 17.8C104.628 15.944 105.289 14.3653 106.612 13.064C107.913 11.7413 109.492 11.08 111.348 11.08ZM111.348 29C114.441 29 117.076 27.9013 119.252 25.704C121.449 23.528 122.548 20.8933 122.548 17.8C122.548 14.7067 121.449 12.072 119.252 9.896C117.076 7.69867 114.441 6.6 111.348 6.6C108.254 6.6 105.62 7.69867 103.444 9.896C101.246 12.072 100.148 14.7067 100.148 17.8C100.148 20.8933 101.246 23.528 103.444 25.704C105.62 27.9013 108.254 29 111.348 29ZM131.82 24.52V20.04H141.1C141.719 20.04 142.241 20.264 142.668 20.712C143.116 21.1387 143.34 21.6613 143.34 22.28C143.34 22.8987 143.116 23.4213 142.668 23.848C142.241 24.296 141.719 24.52 141.1 24.52H131.82ZM131.82 11.08H139.82C140.439 11.08 140.961 11.304 141.388 11.752C141.836 12.1787 142.06 12.7013 142.06 13.32C142.06 13.9387 141.836 14.4613 141.388 14.888C140.961 15.336 140.439 15.56 139.82 15.56H131.82V11.08ZM129.58 6.6C128.961 6.6 128.439 6.81333 128.012 7.24C127.564 7.688 127.34 8.22133 127.34 8.84V26.76C127.34 27.3787 127.564 27.9013 128.012 28.328C128.439 28.776 128.961 29 129.58 29H141.1C142.956 29 144.535 28.3387 145.836 27.016C147.159 25.7147 147.82 24.136 147.82 22.28C147.82 20.1893 146.999 18.472 145.356 17.128C146.145 15.976 146.54 14.7067 146.54 13.32C146.54 11.464 145.879 9.88533 144.556 8.584C143.255 7.26133 141.676 6.6 139.82 6.6H129.58ZM163.187 17.48C164.147 17.48 164.979 17.8213 165.683 18.504C166.366 19.1867 166.707 20.0187 166.707 21C166.707 21.96 166.366 22.792 165.683 23.496C164.979 24.1787 164.147 24.52 163.187 24.52H157.107V17.48H163.187ZM154.867 6.6C154.249 6.6 153.726 6.81333 153.299 7.24C152.851 7.688 152.627 8.22133 152.627 8.84V26.76C152.627 27.3787 152.851 27.9013 153.299 28.328C153.726 28.776 154.249 29 154.867 29H163.187C165.385 29 167.273 28.2213 168.851 26.664C170.409 25.0853 171.187 23.1973 171.187 21C171.187 18.8027 170.409 16.9147 168.851 15.336C167.273 13.7787 165.385 13 163.187 13H157.107V8.84C157.107 8.22133 156.894 7.688 156.467 7.24C156.019 6.81333 155.486 6.6 154.867 6.6ZM175.987 6.6C175.369 6.6 174.835 6.81333 174.387 7.24C173.961 7.688 173.747 8.22133 173.747 8.84V26.76C173.747 27.3787 173.961 27.9013 174.387 28.328C174.835 28.776 175.369 29 175.987 29C176.606 29 177.139 28.776 177.587 28.328C178.014 27.9013 178.227 27.3787 178.227 26.76V8.84C178.227 8.22133 178.014 7.688 177.587 7.24C177.139 6.81333 176.606 6.6 175.987 6.6ZM204.161 8.84C204.161 7.79467 203.671 7.09067 202.689 6.728C201.708 6.38667 200.887 6.6 200.225 7.368L188.801 20.712V8.84C188.801 8.22133 188.588 7.69867 188.161 7.272C187.713 6.824 187.18 6.6 186.561 6.6C185.943 6.6 185.409 6.824 184.961 7.272C184.535 7.69867 184.321 8.22133 184.321 8.84V26.76C184.321 27.8053 184.812 28.5093 185.793 28.872C186.028 28.9573 186.284 29 186.561 29C187.244 29 187.809 28.7333 188.257 28.2L199.681 14.888V26.76C199.681 27.3787 199.895 27.9013 200.321 28.328C200.769 28.776 201.303 29 201.921 29C202.54 29 203.073 28.776 203.521 28.328C203.948 27.9013 204.161 27.3787 204.161 26.76V8.84ZM191.681 0.199999C191.063 0.199999 190.529 0.413332 190.081 0.839998C189.655 1.288 189.441 1.82133 189.441 2.44C189.441 3.05866 189.655 3.592 190.081 4.04C190.529 4.46667 191.063 4.68 191.681 4.68H196.801C197.42 4.68 197.953 4.46667 198.401 4.04C198.828 3.592 199.041 3.05866 199.041 2.44C199.041 1.82133 198.828 1.288 198.401 0.839998C197.953 0.413332 197.42 0.199999 196.801 0.199999H191.681ZM228.781 24.52L233.581 14.152L238.381 24.52H228.781ZM243.821 32.84C244.44 32.84 244.973 32.616 245.421 32.168C245.848 31.7413 246.061 31.2187 246.061 30.6V26.76C246.061 26.1413 245.848 25.608 245.421 25.16C244.973 24.7333 244.44 24.52 243.821 24.52H243.341L235.629 7.88C235.245 7.09067 234.563 6.696 233.581 6.696C232.6 6.696 231.928 7.09067 231.565 7.88L223.821 24.52H223.341C222.723 24.52 222.189 24.7333 221.741 25.16C221.315 25.608 221.101 26.1413 221.101 26.76V30.6C221.101 31.2187 221.315 31.7413 221.741 32.168C222.189 32.616 222.723 32.84 223.341 32.84C223.96 32.84 224.483 32.616 224.909 32.168C225.357 31.7413 225.581 31.2187 225.581 30.6V29H241.581V30.6C241.581 31.2187 241.795 31.7413 242.221 32.168C242.669 32.616 243.203 32.84 243.821 32.84ZM254.695 24.52V20.04H263.975C264.594 20.04 265.116 20.264 265.543 20.712C265.991 21.1387 266.215 21.6613 266.215 22.28C266.215 22.8987 265.991 23.4213 265.543 23.848C265.116 24.296 264.594 24.52 263.975 24.52H254.695ZM254.695 11.08H262.695C263.314 11.08 263.836 11.304 264.263 11.752C264.711 12.1787 264.935 12.7013 264.935 13.32C264.935 13.9387 264.711 14.4613 264.263 14.888C263.836 15.336 263.314 15.56 262.695 15.56H254.695V11.08ZM252.455 6.6C251.836 6.6 251.314 6.81333 250.887 7.24C250.439 7.688 250.215 8.22133 250.215 8.84V26.76C250.215 27.3787 250.439 27.9013 250.887 28.328C251.314 28.776 251.836 29 252.455 29H263.975C265.831 29 267.41 28.3387 268.711 27.016C270.034 25.7147 270.695 24.136 270.695 22.28C270.695 20.1893 269.874 18.472 268.231 17.128C269.02 15.976 269.415 14.7067 269.415 13.32C269.415 11.464 268.754 9.88533 267.431 8.584C266.13 7.26133 264.551 6.6 262.695 6.6H252.455ZM285.423 11.08C287.279 11.08 288.857 11.7413 290.159 13.064C291.481 14.3653 292.143 15.944 292.143 17.8C292.143 19.656 291.481 21.2347 290.159 22.536C288.857 23.8587 287.279 24.52 285.423 24.52C283.567 24.52 281.988 23.8587 280.687 22.536C279.364 21.2347 278.703 19.656 278.703 17.8C278.703 15.944 279.364 14.3653 280.687 13.064C281.988 11.7413 283.567 11.08 285.423 11.08ZM285.423 29C288.516 29 291.151 27.9013 293.327 25.704C295.524 23.528 296.623 20.8933 296.623 17.8C296.623 14.7067 295.524 12.072 293.327 9.896C291.151 7.69867 288.516 6.6 285.423 6.6C282.329 6.6 279.695 7.69867 277.519 9.896C275.321 12.072 274.223 14.7067 274.223 17.8C274.223 20.8933 275.321 23.528 277.519 25.704C279.695 27.9013 282.329 29 285.423 29ZM305.895 18.12H312.615C313.554 18.12 314.386 17.7787 315.111 17.096C315.794 16.3707 316.135 15.5387 316.135 14.6C316.135 13.6187 315.794 12.7867 315.111 12.104C314.386 11.4213 313.554 11.08 312.615 11.08H305.895V18.12ZM301.415 8.84C301.415 8.22133 301.639 7.688 302.087 7.24C302.514 6.81333 303.036 6.6 303.655 6.6H312.615C314.834 6.6 316.722 7.37867 318.279 8.936C319.836 10.4933 320.615 12.3813 320.615 14.6C320.615 16.8187 319.836 18.7067 318.279 20.264C316.722 21.8213 314.834 22.6 312.615 22.6H305.895V26.76C305.895 27.3787 305.682 27.9013 305.255 28.328C304.807 28.776 304.274 29 303.655 29C303.036 29 302.514 28.776 302.087 28.328C301.639 27.9013 301.415 27.3787 301.415 26.76V8.84ZM325.421 26.728C325.421 27.7733 325.912 28.4773 326.893 28.84C327.875 29.2027 328.696 28.9893 329.357 28.2L340.781 14.856V26.728C340.781 27.3467 340.995 27.88 341.421 28.328C341.869 28.7547 342.403 28.968 343.021 28.968C343.64 28.968 344.173 28.7547 344.621 28.328C345.048 27.88 345.261 27.3467 345.261 26.728V8.808C345.261 7.76267 344.771 7.06933 343.789 6.728C343.555 6.62133 343.299 6.568 343.021 6.568C342.339 6.568 341.773 6.83467 341.325 7.368L329.901 20.68V8.808C329.901 8.18933 329.688 7.66667 329.261 7.24C328.813 6.792 328.28 6.568 327.661 6.568C327.043 6.568 326.509 6.792 326.061 7.24C325.635 7.66667 325.421 8.18933 325.421 8.808V26.728ZM351.334 26.76C351.334 27.3787 351.547 27.9013 351.974 28.328C352.422 28.776 352.955 29 353.574 29C354.192 29 354.726 28.776 355.174 28.328C355.6 27.9013 355.814 27.3787 355.814 26.76V20.04H360.23L367.238 28.232C367.686 28.744 368.251 29 368.934 29C369.488 29 369.979 28.8187 370.406 28.456C370.875 28.0507 371.131 27.5387 371.174 26.92C371.216 26.3013 371.035 25.7573 370.63 25.288L364.198 17.8L370.63 10.312C371.035 9.84267 371.216 9.29867 371.174 8.68C371.131 8.06133 370.875 7.54933 370.406 7.144C369.915 6.73867 369.371 6.55733 368.774 6.6C368.155 6.64267 367.643 6.89867 367.238 7.368L360.23 15.56H355.814V8.84C355.814 8.22133 355.6 7.69867 355.174 7.272C354.726 6.824 354.192 6.6 353.574 6.6C352.955 6.6 352.422 6.824 351.974 7.272C351.547 7.69867 351.334 8.22133 351.334 8.84V26.76Z" fill="#FEFCE9"/>
</svg>
