<svg width="240" height="333" viewBox="0 0 240 333" fill="none" xmlns="http://www.w3.org/2000/svg">
<path fill-rule="evenodd" clip-rule="evenodd" d="M108.696 8.4335C114.43 -2.81113 130.856 -2.8112 136.591 8.4335L180.426 95.3175C183.596 101.535 182.588 108.593 177.437 113.293L173.452 117.288L213.302 179.205C216.955 184.89 216.62 191.984 212.305 197.181L207.324 203.173L238.208 260.097C243.686 270.408 235.914 283.067 224.26 283.067H154.523V317.021C154.523 325.57 147.112 333 138.583 333H107.7C99.1714 333 91.7597 325.57 91.7597 317.021V283.067H15.0487C3.22085 283.067 -3.72775 270.416 2.09753 260.097L33.9774 202.175L29.9924 196.183C26.624 191.111 26.7593 184.365 29.9924 179.205L69.8423 116.289L66.8535 113.293C62.5784 108.525 61.95 101.026 64.8611 95.3175L108.696 8.4335ZM88.771 125.277L49.9174 188.193L51.9098 191.189H102.718C108.496 191.189 112.681 196.383 112.681 202.175C112.681 207.966 108.496 212.161 102.718 212.161H52.9061L24.015 262.095H215.294L187.399 210.164C184.449 204.611 185.377 198.022 189.392 193.187L194.373 187.195L153.527 124.279C149.442 117.923 150.938 109.395 156.516 104.305L159.504 101.309L122.643 27.4082L84.786 101.309L87.7747 104.305H111.685C117.462 104.305 122.643 109.5 122.643 115.291C122.643 121.082 117.462 125.277 111.685 125.277H88.771ZM112.681 283.067V312.028H133.602V283.067H112.681Z" fill="#FEFCE9"/>
</svg>
